<?xml version="1.0" encoding="UTF-8"?>
<svg width="30px" height="26px" viewBox="0 0 30 26" version="1.1" xmlns="http://www.w3.org/2000/svg" xmlns:xlink="http://www.w3.org/1999/xlink">
    <!-- Generator: Sketch 50 (54983) - http://www.bohemiancoding.com/sketch -->
    <title>logo copy</title>
    <desc>Created with Sketch.</desc>
    <defs></defs>
    <g id="Symbols" stroke="none" stroke-width="1" fill="none" fill-rule="evenodd">
        <g id="Header" transform="translate(-2.000000, -8.000000)">
            <g id="Group-9">
                <g id="logo-copy" transform="translate(0.000000, 6.000000)">
                    <g id="Group" transform="translate(0.194244, 0.189831)">
                        <g id="hubert" transform="translate(15.001800, 14.706145) rotate(-11.000000) translate(-15.001800, -14.706145) translate(2.353151, 2.600882)">
                            <path d="M16.7253286,0.042303078 C18.1267067,0.049437142 19.8356169,1.07115191 20.5422891,2.32436327 L24.7288731,9.7490067 C25.4355453,11.002238 25.4403318,13.0370044 24.7396427,14.2938207 L20.6453981,21.6374094 C19.944709,22.8942257 18.2405853,23.9072604 16.8392072,23.9000903 L8.53670642,23.8578667 C7.13532826,23.8506967 5.42642472,22.8290313 4.71976583,21.5758001 L0.533169874,14.15115 C-0.17348902,12.8979187 -0.178318722,10.8631523 0.52238232,9.60633604 L4.61665019,2.26275397 C5.31735256,1.0059576 7.02144967,-0.00709662064 8.42282782,3.74499974e-05 L16.7253286,0.042303078 L16.7253286,0.042303078 L16.7253286,0.042303078 L16.7253286,0.042303078 Z" id="head" fill="#DD6461"></path>
                            <path d="M6.98029914,11.8172997 C7.71460667,11.8172997 8.30987993,11.2228298 8.30987993,10.4895132 C8.30987993,9.75619666 7.71460667,9.16172673 6.98029914,9.16172673 C6.24599162,9.16172673 5.65071835,9.75619666 5.65071835,10.4895132 C5.65071835,11.2228298 6.24599162,11.8172997 6.98029914,11.8172997 L6.98029914,11.8172997 L6.98029914,11.8172997 L6.98029914,11.8172997 Z" id="eye-left" fill="#613433"></path>
                            <path d="M18.2817359,11.8172997 C19.0160633,11.8172997 19.6113166,11.2228298 19.6113166,10.4895132 C19.6113166,9.75619666 19.0160633,9.16172673 18.2817359,9.16172673 C17.5474084,9.16172673 16.9521551,9.75619666 16.9521551,10.4895132 C16.9521551,11.2228298 17.5474084,11.8172997 18.2817359,11.8172997 L18.2817359,11.8172997 L18.2817359,11.8172997 L18.2817359,11.8172997 Z" id="eye-right" fill="#613433"></path>
                            <path d="M10.6890185,18.7283088 C11.703349,19.1570843 13.558686,19.1570843 14.5730032,18.7283088 C15.7650389,18.2244205 16.7200103,17.2707113 17.2245862,16.0803043 C17.6539743,15.0673426 16.7240655,14.140926 15.6225743,14.140926 L9.63946072,14.140926 C8.53800276,14.140926 7.60808352,15.0673426 8.03743819,16.0803043 C8.5420048,17.2707113 9.49700279,18.2244205 10.6890185,18.7283088 L10.6890185,18.7283088 L10.6890185,18.7283088 L10.6890185,18.7283088 Z" id="mouth" fill="#613433"></path>
                            <path d="M10.3334952,18.175943 C10.6520096,18.3583079 11.2120091,18.5698707 11.5734756,18.6341621 C12.2304215,18.7510007 13.0316135,18.7510007 13.6885594,18.6341621 C14.0500259,18.5698707 14.6100254,18.3583079 14.9285398,18.175943 C15.3098835,17.9576085 15.651958,17.6865408 15.9428703,17.373794 C16.1926985,17.105143 16.1588607,16.6250619 15.8679484,16.4013896 C15.2101383,15.8956722 14.3100454,15.5448452 13.2947376,15.4371757 C12.9296347,15.3984581 12.3324003,15.3984581 11.9672974,15.4371757 C10.9519896,15.5448452 10.0518967,15.8956722 9.3941185,16.4013896 C9.10319359,16.6250619 9.06932451,17.105143 9.31918532,17.373794 C9.6100504,17.6865408 9.95215153,17.9576085 10.3334952,18.175943 L10.3334952,18.175943 L10.3334952,18.175943 L10.3334952,18.175943 Z" id="tongue" fill="#AB4F4F"></path>
                        </g>
                    </g>
                </g>
            </g>
        </g>
    </g>
</svg>